<svg viewBox="0 0 24 24" xmlns="http://www.w3.org/2000/svg"><path d="M20.1 23.875a3.75 3.75 0 0 0 3.721-4.215L22.244 7.032v-.006a.67.67 0 0 0-.027-.124v-.011l-.006-.017-1.045-2.933a.581.581 0 0 0-.04-.092 1.729 1.729 0 0 0-1.526-.974h-1a.75.75 0 0 0 0 1.5h1a.234.234 0 0 1 .172.126l.546 1.541a.245.245 0 0 1-.031.227.249.249 0 0 1-.2.106h-2.735a.25.25 0 0 1-.25-.25v-1a5 5 0 0 0-10 0v1a.25.25 0 0 1-.25.25H4.009a.25.25 0 0 1-.23-.347l.632-1.494a.256.256 0 0 1 .189-.159h1a.75.75 0 0 0 0-1.5h-1A1.751 1.751 0 0 0 3.054 3.9L1.811 6.83v.008a.768.768 0 0 0-.019.051v.015a.8.8 0 0 0-.028.127L.177 19.66A3.749 3.749 0 0 0 3.9 23.875ZM8.111 13.24a2.017 2.017 0 0 1 3.23-.524l.38.38a.25.25 0 0 0 .354 0l.38-.38a2.017 2.017 0 1 1 2.852 2.853l-3.229 3.368a.25.25 0 0 1-.361 0l-3.228-3.368a2.018 2.018 0 0 1-.378-2.329ZM9.1 5.125a3 3 0 0 1 6 0v1a.25.25 0 0 1-.25.25h-5.5a.25.25 0 0 1-.25-.25Z" fill="#ffffff" class="fill-000000"></path></svg>